<?xml version="1.0" encoding="utf-8"?>
<!-- Generator: Adobe Illustrator 26.2.1, SVG Export Plug-In . SVG Version: 6.00 Build 0)  -->
<svg version="1.1" id="Layer_1" xmlns="http://www.w3.org/2000/svg" xmlns:xlink="http://www.w3.org/1999/xlink" x="0px" y="0px"
	 viewBox="0 0 1000 260.81" style="enable-background:new 0 0 1000 260.81;" xml:space="preserve">
<style type="text/css">
	.st0{fill:#F4817E;}
	.st1{fill:#5E5C60;}
</style>
<g>
	<g>
		<path class="st0" d="M257.29,40.43c-39.35-31.12-77.55,3.17-88.72,14.88l0,0v18.63l27.21,16.63v89.75H165.3h-30.48V90.56
			l27.21-16.63V55.3c-11.17-11.71-49.37-45.99-88.72-14.88c-46.81,37.01,0,158.93,91.44,192.68h1.09
			C257.29,199.36,304.1,77.44,257.29,40.43z"/>
		<circle class="st0" cx="165.31" cy="93.22" r="7.62"/>
	</g>
	<g>
		<path class="st1" d="M407.45,84c4.92-7.59,12.08-11.09,17.21-11.09c5.12,0,10.45,4.09,10.45,9.14c0,2.53-1.43,4.47-2.46,5.45
			l-3.07,2.92c-5.32,5.06-7.17,7.2-6.96,13.03v11.48c0,20.04-13.31,35.22-40.56,35.22c-4.71,0-9.63-0.39-13.72-1.75
			c-1.43,2.92-1.84,4.86-1.84,6.81c0,6.03,4.92,7.4,8.4,7.4h8.6c24.99,0,44.04,9.14,44.04,29.19c0,20.04-19.05,32.49-45.06,32.49
			c-24.99,0-42.4-11.48-42.4-30.75c0-8.56,3.69-15.37,11.88-22.18c-3.89-5.06-5.12-11.29-5.12-15.57c0-4.28,1.64-9.73,6.76-14.98
			c-7.99-6.81-12.08-16.15-12.08-27.24c0-20.62,13.31-36.19,38.71-36.19C390.24,77.38,399.05,79.72,407.45,84z M367.5,179.92
			c-3.69,3.5-5.32,7.01-5.32,11.67c0,9.34,6.76,14.79,20.69,14.79c13.11,0,22.53-4.86,22.53-14.2c0-7.98-6.96-11.67-21.51-11.67
			h-4.3C375.29,180.5,371.19,180.11,367.5,179.92z M400.69,99.57c-5.94-2.92-11.47-4.67-17.61-4.67c-12.9,0-19.46,6.81-19.46,19.07
			c0,11.28,5.53,18.68,18.84,18.68c12.29,0,18.02-6.62,18.02-17.32v-6.23C400.48,105.99,400.48,102.68,400.69,99.57z"/>
		<path class="st1" d="M463.97,61.04c-7.37,0-12.9-5.25-12.9-11.48c0-6.42,5.53-11.48,12.9-11.48c7.17,0,12.9,5.25,12.9,11.48
			C476.67,55.98,471.14,61.04,463.97,61.04z M463.97,178.56c-6.35,0-11.06-4.09-11.06-9.73V87.7c0-5.25,4.71-9.73,11.06-9.73
			c6.14,0,11.06,4.47,11.06,9.73v81.14C475.03,174.48,470.12,178.56,463.97,178.56z"/>
		<path class="st1" d="M577.03,96.06c-9.01,23.93-17.21,48.06-26.01,72.19c-2.66,7.39-6.55,10.31-13.31,10.31
			c-7.37,0-10.86-2.92-13.52-10.12c-8.6-24.13-17.61-48.45-26.42-72.77l-2.25-7.59c0-0.39-0.2-0.78-0.2-1.17
			c0-5.25,5.53-9.14,11.06-9.14c4.1,0,8.81,2.53,10.24,6.81c3.69,11.48,7.58,23.16,11.47,34.63c3.69,11.48,6.35,22.96,9.63,34.44
			c3.07-11.48,5.53-22.96,9.22-34.44c3.69-11.48,7.37-22.96,11.27-34.63c1.23-3.89,5.94-6.61,10.24-6.61
			c5.73,0,10.65,3.89,10.65,9.34c0,0.39,0,0.78,0,1.17L577.03,96.06z"/>
		<path class="st1" d="M620.25,168.83c0,5.45-3.69,9.73-11.06,9.73s-11.06-4.28-11.06-9.73v-62.46c0-8.56-1.43-8.95-2.66-10.89
			c-1.64-2.34-2.46-3.5-2.46-5.84c0-5.06,4.51-8.95,10.65-8.95c3.89,0,7.17,2.14,9.63,5.64c9.22-6.03,19.25-8.56,28.27-8.56
			c23.76,0,35.64,14.98,35.64,37.36v53.7c0,5.45-4.1,9.73-11.06,9.73c-7.17,0-11.06-4.28-11.06-9.73v-53.7
			c0-12.26-5.94-19.46-16.18-19.46c-6.15,0-12.49,2.14-19.25,6.03c0.41,1.75,0.61,3.31,0.61,4.67v62.46H620.25z"/>
		<path class="st1" d="M705.86,58.9c0-5.45,3.89-9.73,11.06-9.73c6.96,0,11.06,4.47,11.06,9.73v24.13h18.23
			c5.73,0,10.45,4.09,10.45,9.53c0,5.25-4.71,9.34-10.45,9.34h-18.23v34.05c0,17.12,1.64,23.35,13.93,23.35
			c1.43,0,2.87-0.19,3.69-0.19c8.81,0,13.72,2.14,13.72,8.76c0,8.95-7.78,10.11-15.77,10.11c-30.11,0-37.69-14.01-37.69-40.66
			L705.86,58.9L705.86,58.9z"/>
		<path class="st1" d="M793.31,137.5v8.95c0,8.75,6.35,14.4,19.25,14.4c7.58,0,13.11-1.94,19.87-4.86c0.61-0.39,2.05-0.97,4.51-0.97
			c6.96,0,10.04,4.86,10.04,8.76c0,11.67-24.17,14.98-36.25,14.98c-25.19,0-39.53-14.4-39.53-33.27v-34.44
			c0-19.07,14.13-33.66,40.56-33.66c24.78,0,37.07,12.84,37.07,32.3c0,18.29-11.26,29.19-37.28,29.19
			C805.81,138.87,799.87,138.48,793.31,137.5z M811.34,94.7c-11.47,0-18.03,5.84-18.03,15.18v11.48c6.97,0.78,14.95,1.17,18.03,1.17
			c11.67,0,15.57-5.25,15.57-13.43C826.9,98.79,821.37,94.7,811.34,94.7z"/>
		<path class="st1" d="M890.81,113.38l29.49-29.77c2.66-2.72,5.94-5.45,10.45-5.45c5.94,0,10.65,3.89,10.65,9.14
			c0,2.53-1.03,4.86-2.87,6.61l-27.65,27.24c10.85,14.4,21.71,28.79,32.36,43.19c1.23,1.55,1.84,4.09,1.84,5.84
			c-0.41,5.25-4.92,8.37-10.65,8.37c-6.35,0-7.58-2.14-11.88-8.17l-27.04-36.97c-1.64,1.36-3.07,3.11-4.71,4.47v26.66
			c0,7.2-2.46,14.01-11.06,14.01c-6.35,0-11.06-4.09-11.06-9.73V51.12c0-7.59,1.84-14.59,11.06-14.59c6.14,0,11.06,4.28,11.06,9.73
			v67.12H890.81z"/>
	</g>
</g>
</svg>
